<svg xmlns="http://www.w3.org/2000/svg" width="24" height="24" viewBox="0 0 24 24" fill="none">
  <path d="M23.25 19.5005C23.25 19.6994 23.171 19.8901 23.0303 20.0308C22.8897 20.1715 22.6989 20.2505 22.5 20.2505H1.5C1.30109 20.2505 1.11032 20.1715 0.96967 20.0308C0.829018 19.8901 0.75 19.6994 0.75 19.5005C0.75 19.3016 0.829018 19.1108 0.96967 18.9701C1.11032 18.8295 1.30109 18.7505 1.5 18.7505H22.5C22.6989 18.7505 22.8897 18.8295 23.0303 18.9701C23.171 19.1108 23.25 19.3016 23.25 19.5005ZM1.52812 9.20485C1.48352 9.04756 1.49152 8.88001 1.55093 8.7277C1.61033 8.57538 1.71787 8.44665 1.85719 8.3611L11.6072 2.3611C11.7253 2.28846 11.8613 2.25 12 2.25C12.1387 2.25 12.2747 2.28846 12.3928 2.3611L22.1428 8.3611C22.2822 8.44655 22.3898 8.57519 22.4493 8.72744C22.5088 8.87969 22.517 9.04721 22.4725 9.20452C22.428 9.36182 22.3334 9.50029 22.2029 9.59884C22.0725 9.69739 21.9135 9.75064 21.75 9.75047H19.5V15.7505H21C21.1989 15.7505 21.3897 15.8295 21.5303 15.9701C21.671 16.1108 21.75 16.3016 21.75 16.5005C21.75 16.6994 21.671 16.8901 21.5303 17.0308C21.3897 17.1715 21.1989 17.2505 21 17.2505H3C2.80109 17.2505 2.61032 17.1715 2.46967 17.0308C2.32902 16.8901 2.25 16.6994 2.25 16.5005C2.25 16.3016 2.32902 16.1108 2.46967 15.9701C2.61032 15.8295 2.80109 15.7505 3 15.7505H4.5V9.75047H2.25C2.08668 9.75053 1.9278 9.69727 1.79751 9.59879C1.66721 9.50031 1.57263 9.36199 1.52812 9.20485ZM13.5 15.0005C13.5 15.1994 13.579 15.3901 13.7197 15.5308C13.8603 15.6715 14.0511 15.7505 14.25 15.7505C14.4489 15.7505 14.6397 15.6715 14.7803 15.5308C14.921 15.3901 15 15.1994 15 15.0005V10.5005C15 10.3016 14.921 10.1108 14.7803 9.97014C14.6397 9.82949 14.4489 9.75047 14.25 9.75047C14.0511 9.75047 13.8603 9.82949 13.7197 9.97014C13.579 10.1108 13.5 10.3016 13.5 10.5005V15.0005ZM9 15.0005C9 15.1994 9.07902 15.3901 9.21967 15.5308C9.36032 15.6715 9.55109 15.7505 9.75 15.7505C9.94891 15.7505 10.1397 15.6715 10.2803 15.5308C10.421 15.3901 10.5 15.1994 10.5 15.0005V10.5005C10.5 10.3016 10.421 10.1108 10.2803 9.97014C10.1397 9.82949 9.94891 9.75047 9.75 9.75047C9.55109 9.75047 9.36032 9.82949 9.21967 9.97014C9.07902 10.1108 9 10.3016 9 10.5005V15.0005Z" fill="#343330"/>
</svg>