<svg xmlns="http://www.w3.org/2000/svg" width="18" height="18" viewBox="0 0 18 18" fill="none">
  <path d="M17.4496 9.20004C17.4496 8.61485 17.3977 8.0593 17.3088 7.51855H8.93848V10.8593H13.7311C13.5163 11.9556 12.8866 12.8815 11.9533 13.5111V15.7334H14.8126C16.4866 14.1852 17.4496 11.9037 17.4496 9.20004Z" fill="#4285F4"/>
  <path d="M8.93822 17.8889C11.3382 17.8889 13.3456 17.0889 14.8123 15.7333L11.953 13.5111C11.153 14.0444 10.1382 14.3704 8.93822 14.3704C6.6197 14.3704 4.65674 12.8074 3.95303 10.6963H1.00488V12.9852C2.46414 15.8889 5.46414 17.8889 8.93822 17.8889Z" fill="#34A853"/>
  <path d="M3.95351 10.6961C3.76832 10.1628 3.67203 9.59242 3.67203 8.99983C3.67203 8.40724 3.77573 7.83687 3.95351 7.30354V5.01465H1.00536C0.397952 6.21465 0.0498047 7.56279 0.0498047 8.99983C0.0498047 10.4369 0.397952 11.785 1.00536 12.985L3.95351 10.6961Z" fill="#FBBC05"/>
  <path d="M8.93822 3.62985C10.2493 3.62985 11.4197 4.0817 12.3456 4.96318L14.879 2.42985C13.3456 0.99281 11.3382 0.111328 8.93822 0.111328C5.46414 0.111328 2.46414 2.11133 1.00488 5.01503L3.95303 7.30392C4.65674 5.19281 6.6197 3.62985 8.93822 3.62985Z" fill="#EA4335"/>
</svg>