<svg xmlns="http://www.w3.org/2000/svg" width="37" height="45" viewBox="0 0 37 45" fill="none">
  <mask id="mask0_507_10755" style="mask-type:luminance" maskUnits="userSpaceOnUse" x="5" y="13" width="22" height="28">
    <path d="M26.0343 13.8848H5.0127V40.5503H26.0343V13.8848Z" fill="white"/>
  </mask>
  <g mask="url(#mask0_507_10755)">
    <path d="M16.7043 40.4213C18.7347 40.2243 20.6302 39.5717 22.133 38.5681C22.8875 38.0632 23.961 37.0104 24.4149 36.3208C25.0897 35.3049 25.5865 34.0859 25.8503 32.7744C25.9546 32.2634 25.9669 31.3707 25.9914 23.0527L26.0159 13.8912H19.7591V22.2769C19.7591 27.7874 19.7346 30.8843 19.6855 31.3029C19.6058 32.0479 19.3604 32.9407 19.1089 33.3963C18.7961 33.975 18.2195 34.5292 17.6245 34.8185C15.9744 35.6312 13.5637 35.3357 12.4227 34.1905C11.84 33.6056 11.4413 32.6636 11.2756 31.4815C11.2327 31.1921 11.2082 27.7997 11.2082 22.4493V13.8789H5.02496V22.554C5.02496 31.2537 5.03723 31.9925 5.26419 33.0946C5.81013 35.8098 7.49702 37.9709 10.0856 39.2638C11.9749 40.2181 14.4286 40.6491 16.7043 40.4213Z" fill="#4500A8"/>
  </g>
  <mask id="mask1_507_10755" style="mask-type:luminance" maskUnits="userSpaceOnUse" x="3" y="12" width="33" height="7">
    <path d="M35.7569 12.1299H3.9024V18.1144H35.7569V12.1299Z" fill="white"/>
  </mask>
  <g mask="url(#mask1_507_10755)">
    <path fill-rule="evenodd" clip-rule="evenodd" d="M5.12917 17.5783C5.31319 17.646 5.55242 17.6645 5.79779 17.6891C5.78552 17.7015 5.77325 17.7199 5.77325 17.7446C5.91434 17.7507 5.96954 17.7015 6.11676 17.7138C6.07382 17.7446 6.11063 17.763 6.18424 17.7569C6.1413 17.7938 6.01248 17.7692 6.01248 17.7261C5.98181 17.7322 5.98795 17.7569 6.01248 17.7569C5.66284 17.7322 5.30092 17.7938 5.00035 17.7322C5.17211 17.8554 5.74872 17.8492 6.01248 17.9231C6.00022 17.9539 5.88367 17.9354 5.90207 17.8923C5.8714 17.9046 5.82232 17.9046 5.81619 17.9354C5.58309 17.8923 5.31319 17.8677 5.0801 17.8862C4.81019 17.7815 4.45442 17.7446 4.30106 17.566C4.29493 17.449 4.3256 17.3936 4.30106 17.2951C4.36854 17.1781 4.44828 17.0611 4.5771 16.9811C4.48509 16.8641 4.42988 16.7779 4.42374 16.6609C4.45442 16.6363 4.58323 16.6117 4.49122 16.5871C4.53416 16.5747 4.5771 16.5501 4.62004 16.5316C4.60777 16.4947 4.50349 16.4885 4.55256 16.4454C4.62617 16.4331 4.63231 16.4701 4.70591 16.4578C4.69365 16.3777 4.53416 16.3408 4.48509 16.23C4.43601 16.1007 4.52802 15.9406 4.52189 15.7743C4.73045 15.7743 4.66298 15.565 4.95128 15.5835C4.73045 15.4973 4.40534 15.3988 4.12931 15.3926C4.08023 15.3372 4.00662 15.1833 4.12931 15.1402C4.10477 15.1094 4.0741 15.0909 4.04343 15.0663C4.08637 15.0294 4.26426 15.0663 4.19678 14.9924C4.41761 14.9555 4.69365 15.0047 4.847 14.8877C4.847 14.8508 4.76726 14.8631 4.73659 14.8447C4.73045 14.8077 4.77339 14.7646 4.76112 14.7277C4.63844 14.6969 4.70591 14.6784 4.58937 14.6723C4.62004 14.6353 4.65684 14.6045 4.74272 14.5984C4.67524 14.5614 4.55256 14.5614 4.52189 14.506C4.76726 14.4383 4.87767 14.4814 5.14757 14.4691C4.75499 14.3952 4.40534 14.3028 4.08637 14.1797C4.08023 14.1243 4.08023 14.0566 4.12931 14.0627C4.08637 14.0196 4.0557 14.0504 4.01889 14.075C3.99436 13.9519 3.98209 13.878 3.86554 13.8041C3.90848 13.6995 4.06183 13.7487 4.18451 13.7179C4.15998 13.6502 4.13544 13.5886 4.03116 13.5763C4.09864 13.447 4.46668 13.4655 4.58937 13.4162C4.54029 13.3301 4.40534 13.4039 4.28266 13.4162C4.31333 13.3608 4.23972 13.3732 4.23972 13.3301C4.62617 13.3177 4.65684 13.2008 5.06169 13.2439C5.06783 12.8744 5.35 12.6836 5.50335 12.4065C5.69351 12.4435 5.77325 12.3757 5.86526 12.3203C5.8714 12.2834 5.74872 12.3326 5.75485 12.2895C5.92047 12.2403 6.1597 12.2464 6.40507 12.2341C6.63203 12.2095 6.82219 12.2095 6.96327 12.2711C8.07355 12.1295 8.94459 12.2403 10.1101 12.1787C10.1346 12.2218 10.0365 12.2033 10.0426 12.2341C10.3984 12.2341 11.0302 12.1295 11.3798 12.2095C11.4535 12.1972 11.4105 12.2526 11.4473 12.2649C11.7234 12.2588 11.9626 12.1602 12.1405 12.2587C12.5269 12.2834 12.9563 12.1664 13.2385 12.2526C14.3733 12.228 15.2811 12.1787 16.2381 12.2895C16.7779 12.3203 17.2195 12.2772 17.7655 12.3018C17.6857 12.3696 17.5078 12.3696 17.3606 12.388C17.5569 12.4127 17.882 12.4188 18.1581 12.3942C19.072 12.3265 20.029 12.3511 20.9613 12.388C21.0043 12.4188 20.9552 12.4004 20.9368 12.4311C21.1208 12.4742 21.3171 12.4188 21.4766 12.4004C21.5196 12.4311 21.4766 12.4373 21.4766 12.4742C21.6606 12.4866 21.6054 12.4311 21.7158 12.4188C21.8201 12.4065 21.6852 12.4558 21.7588 12.4619C21.8017 12.4681 21.8017 12.4373 21.8017 12.4188C22.0471 12.4435 22.2434 12.4496 22.5378 12.425C22.6237 12.4188 22.5255 12.4619 22.5808 12.4804C22.9427 12.4866 23.4579 12.4004 23.8567 12.4435C24.0468 12.4681 24.1634 12.4435 24.3719 12.4373C24.5559 12.4373 24.7277 12.5112 24.9301 12.5297C25.0957 12.542 25.3472 12.4866 25.5987 12.5235C25.5926 12.5481 25.5313 12.5297 25.5313 12.5543C26.2674 12.5297 27.1691 12.5235 27.8561 12.4496C28.6903 12.4989 29.6595 12.3696 30.4263 12.3757C30.4018 12.4004 30.3772 12.4065 30.3159 12.4065C31.0581 12.4619 32.1929 12.4742 33.1376 12.4435C33.2235 12.4373 33.2296 12.3696 33.3584 12.388C33.4136 12.308 33.5915 12.3018 33.7019 12.2711C33.7265 12.2649 33.7878 12.228 33.8123 12.228C34.1558 12.2157 34.0516 12.4742 34.2479 12.6097C34.3521 12.5666 34.4503 12.5543 34.5484 12.6097C34.5423 12.6959 34.3828 12.6897 34.3399 12.7575C34.3705 12.7821 34.4626 12.8006 34.4687 12.7575C34.5178 12.7882 34.5178 12.8313 34.4687 12.8621C34.5484 12.8683 34.5178 12.8129 34.5975 12.819C34.6036 12.8498 34.5852 12.856 34.573 12.8744C34.6404 12.8806 34.6404 12.8437 34.6834 12.8744C34.6895 12.9606 34.6772 13.0407 34.5975 13.0715C35.033 13.1577 35.3827 13.3916 35.7446 13.5763C35.7385 13.6625 35.628 13.6872 35.6158 13.7733C35.352 13.8226 35.1802 13.8534 34.8613 13.8595C34.8122 13.8903 34.8981 13.9396 34.8367 13.9765C34.7509 13.9642 34.6159 13.9704 34.5607 14.0319C34.6404 14.0566 34.6772 14.0381 34.7815 14.0627C34.7693 14.0997 34.7079 14.0997 34.6957 14.1366C34.8367 14.2166 34.6159 14.3398 34.6957 14.4383C34.6588 14.4691 34.573 14.4137 34.4994 14.426C34.6159 14.4691 34.3828 14.4506 34.346 14.4814C34.3521 14.5122 34.53 14.4506 34.4748 14.5122C34.6957 14.4876 34.6282 14.5183 34.7938 14.5122C34.7631 14.7338 34.438 14.8139 34.0884 14.9124C34.1374 14.9555 34.2172 15.0355 34.1743 15.0971C34.2049 15.1279 34.2969 15.0725 34.346 15.0663C34.346 15.1094 34.2908 15.1156 34.2785 15.1525C34.3276 15.1894 34.3215 15.1279 34.3889 15.1402C34.3215 15.2202 34.2049 15.1956 34.1129 15.2448C34.2049 15.2941 34.3153 15.2448 34.4319 15.2448C34.4258 15.2695 34.3644 15.2572 34.3889 15.3003C34.4442 15.3003 34.4319 15.251 34.5178 15.2695C34.5239 15.3126 34.4503 15.3003 34.4748 15.3557C34.5852 15.3434 34.7202 15.3249 34.8183 15.3434C34.8183 15.3926 34.7447 15.3988 34.7079 15.4296C34.7815 15.4542 34.8306 15.4172 34.9287 15.4172C34.9349 15.4727 34.9349 15.5465 34.7754 15.565C34.7815 15.5958 34.7754 15.6143 34.7509 15.6389C34.8367 15.6758 34.8797 15.6512 35.0698 15.6697C35.1066 15.7374 34.984 15.7805 35.0024 15.8236C35.0576 15.9283 35.1864 15.9036 35.352 15.9036C35.2784 15.9591 35.3152 15.996 35.2416 16.0452C35.352 16.0883 35.2723 16.1376 35.2661 16.23C35.2293 16.23 35.2232 16.2176 35.1802 16.2176C35.1312 16.3716 34.7509 16.3038 34.7079 16.4578C34.8122 16.4885 34.7447 16.6178 34.8367 16.6548C34.7141 16.8395 34.8245 17.172 34.4319 17.1781C34.4564 17.2335 34.5239 17.2643 34.6527 17.2582C34.6282 17.3259 34.6957 17.332 34.7815 17.332C34.7447 17.4059 34.7325 17.4121 34.8245 17.4429C34.7325 17.566 34.7509 17.6891 34.6588 17.8677C33.7694 17.8184 32.5364 17.8246 31.7513 17.7753C31.7267 17.7753 31.739 17.7877 31.7267 17.8061C31.5611 17.7261 31.2912 17.7753 31.1256 17.8308C31.1379 17.8184 31.1501 17.8061 31.1501 17.7877C31.0581 17.7815 31.0274 17.8123 30.9293 17.8C30.7391 17.7692 30.0583 17.8554 29.6105 17.8677C29.1259 17.8738 28.6229 17.9416 28.3836 18.0093C28.3039 17.8862 28.0585 17.9354 27.8009 17.9416C27.7334 17.9477 27.7641 17.8923 27.715 17.8862C27.5862 17.9539 27.1997 17.8492 27.0464 17.9354C27.0341 17.9724 27.0525 17.9847 27.1139 17.9785C26.9605 18.0278 26.7704 17.9724 26.5986 18.0093C26.6109 18.0216 26.6477 18.0216 26.6415 18.0524C26.341 18.0401 26.0281 17.9847 25.8441 17.9108C25.7398 17.9416 25.6785 17.8985 25.5803 17.88C25.3227 17.8431 24.9424 17.9108 24.6357 17.9169C23.6972 17.9293 22.7709 17.8492 21.8999 17.9108C21.8876 17.8985 21.8508 17.8985 21.8569 17.8677C21.176 17.88 20.6301 17.9231 19.9615 17.9231C19.9553 17.96 20.0044 17.96 20.0474 17.9662C19.8756 17.9785 19.71 17.9293 19.575 17.8985C19.4217 18.0031 19.3113 17.8862 19.1027 17.8923C19.0904 17.8615 19.1456 17.8677 19.1456 17.8492C18.4464 17.8 17.8145 18.0216 17.103 17.9046C17.0723 17.9293 17.0294 17.9416 16.9742 17.9477C16.9987 17.8615 17.195 17.88 17.2931 17.8431C16.968 17.8431 16.5632 17.8862 16.1706 17.8061C16.0295 17.9354 15.6492 17.8554 15.3364 17.8923C15.3302 17.8677 15.3609 17.8677 15.3609 17.8492C15.2566 17.8492 15.2014 17.8246 15.0971 17.8184C15.0971 17.8677 15.1769 17.8615 15.2505 17.8615C15.0787 17.9354 14.8334 17.8123 14.7536 17.9477C14.6371 17.9354 14.5573 17.9354 14.4898 17.9785C14.4837 17.9539 14.5144 17.9539 14.5144 17.9354C13.9194 17.8554 13.2385 17.8677 12.4656 17.8615C12.4717 17.9169 12.6128 17.8862 12.6619 17.9169C11.9258 17.9908 11.1038 17.7753 10.3554 17.9293C10.4659 17.9724 10.7051 17.9662 10.7848 17.9785C10.8278 17.9847 10.9259 17.9662 10.9382 17.9908C10.6928 17.9847 10.6131 18.0278 10.3984 18.0216C10.3616 18.0339 10.3554 18.0647 10.288 18.0647C10.3309 18.0339 10.2757 18.0216 10.288 17.9785C10.196 17.9662 10.1714 17.9908 10.1162 18.0093C9.99966 17.9416 9.88925 17.9724 9.7543 18.0093C9.00594 17.8677 8.05515 17.997 7.20864 17.9416C7.41106 17.8677 7.71164 17.9416 7.90179 17.8554C7.86499 17.8184 7.69323 17.88 7.73004 17.7815C7.63803 17.7753 7.64416 17.8246 7.55828 17.8246C7.52761 17.8123 7.52761 17.7753 7.55828 17.7507C7.38653 17.7877 7.05528 17.7815 6.84672 17.7015H7.04302C6.58909 17.6645 5.90207 17.5845 5.3868 17.5968C5.35 17.5475 5.30706 17.6214 5.12917 17.5783ZM20.6362 17.8184C20.5258 17.8246 20.4154 17.8123 20.5074 17.763C20.4215 17.7569 20.397 17.7938 20.3357 17.8061C20.4277 17.8061 20.3847 17.8369 20.3602 17.8615C20.4399 17.8123 20.624 17.9108 20.6362 17.8184ZM10.1592 17.9108C10.1898 17.9108 10.2021 17.9354 10.2021 17.8985C10.0917 17.8985 9.98126 17.9108 9.91992 17.8985C9.93219 17.9539 10.1039 17.9477 10.1592 17.9108ZM16.1093 17.5537C16.1338 17.5044 15.9866 17.5229 15.9988 17.5537C16.054 17.5537 16.0602 17.5845 16.1093 17.5537ZM15.9559 17.5229C15.8823 17.5291 15.7535 17.5106 15.7167 17.5352C15.8332 17.5475 15.8823 17.5906 15.9559 17.5229ZM19.164 16.8518C19.1088 16.8087 18.98 16.858 18.9678 16.8087C18.9003 16.8087 18.8573 16.8518 18.8144 16.821V16.8764C18.9187 16.8703 19.072 16.8764 19.164 16.8518ZM9.06728 16.1622C8.9998 16.1745 8.90779 16.1745 8.89552 16.2176C8.9814 16.2176 9.08568 16.2238 9.06728 16.1622ZM8.59495 16.0637C8.29438 16.0945 8.72377 16.1068 8.76671 16.0637H8.59495ZM28.1383 15.1402C28.126 15.1279 28.0095 15.1279 28.0095 15.171C28.0647 15.1648 28.1383 15.1771 28.1383 15.1402ZM21.7097 14.3644C21.679 14.4137 21.8385 14.4198 21.8631 14.3952C21.771 14.4075 21.8017 14.3459 21.7097 14.3644ZM21.3662 14.3706C21.176 14.3459 21.0166 14.3706 20.7835 14.3644C20.9 14.3767 21.2435 14.426 21.3662 14.3706ZM20.2437 14.3644C20.2805 14.3644 20.3173 14.3644 20.3111 14.3952C20.4399 14.3644 20.6362 14.3952 20.7405 14.3952C20.5013 14.3459 20.3909 14.3275 20.2437 14.3644ZM22.5071 14.2905C22.6544 14.2659 22.8629 14.3275 22.912 14.2782C22.6544 14.2413 22.0962 14.229 21.814 14.2844C22.041 14.2967 22.182 14.3336 22.3967 14.309C22.2311 14.2597 22.5501 14.3213 22.5501 14.3213C22.5317 14.3152 22.5133 14.309 22.5071 14.2905ZM20.0903 14.309H19.9369C19.9308 14.3644 20.0842 14.3275 20.0903 14.309ZM21.7526 14.2844C21.7649 14.2844 21.7772 14.2844 21.7772 14.2721C21.6852 14.2659 21.3907 14.2844 21.6238 14.2844C21.6668 14.3152 21.6974 14.2721 21.7342 14.2967C21.7342 14.3028 21.7342 14.309 21.7588 14.309C21.7526 14.2967 21.7526 14.2905 21.7526 14.2844ZM22.9795 14.192C23.004 14.1612 23.0592 14.1551 23.0899 14.1366C22.6237 14.112 21.814 14.1366 21.2803 14.1489C21.7588 14.2166 22.4151 14.1366 22.9795 14.192ZM7.49694 13.6194C7.27611 13.5332 6.951 13.4963 6.67497 13.5086C6.96327 13.5271 7.26998 13.6625 7.49694 13.6194ZM8.44773 13.4717C8.37412 13.4286 8.19623 13.4347 8.12876 13.4717C8.13489 13.4409 8.12262 13.4224 8.08582 13.4162C8.04901 13.447 8.09809 13.447 8.06128 13.4717C8.17783 13.5332 8.30051 13.5024 8.44773 13.4717ZM8.83418 13.4593C8.7483 13.4655 8.7115 13.4347 8.61335 13.447C8.61949 13.5209 8.83418 13.4901 8.83418 13.4593ZM6.95714 13.3424C6.88353 13.3301 6.82832 13.3362 6.69337 13.3301C6.6995 13.3916 6.88353 13.3547 6.95714 13.3424ZM26.1569 12.6959C26.206 12.6713 26.3655 12.7205 26.433 12.6836C26.39 12.6343 26.1876 12.6405 26.1569 12.6959ZM16.784 12.622C16.8638 12.6097 16.9067 12.6589 16.9558 12.622C16.876 12.5543 16.692 12.5789 16.5509 12.5851C16.3117 12.5912 16.0786 12.6282 15.8394 12.6097C16.0602 12.6713 16.6 12.6282 16.784 12.622ZM15.4897 12.6097C15.3977 12.5974 15.1707 12.6097 15.0358 12.6405C15.1891 12.6282 15.4652 12.702 15.4897 12.6097ZM14.1709 12.6466C14.177 12.5789 14.3794 12.6528 14.3917 12.5912C14.2813 12.5666 14.2077 12.5912 14.1095 12.6035C14.1034 12.5666 14.0973 12.5543 14.0421 12.5173C13.5881 12.6405 13.1649 12.4435 12.7232 12.5666C13.2017 12.6405 13.6985 12.5666 14.1709 12.6466ZM18.1335 12.5666C18.2439 12.5666 18.3789 12.622 18.4341 12.5358C18.0476 12.5112 17.6612 12.5235 17.2686 12.6035C17.5569 12.5974 17.8697 12.5666 18.1335 12.5666Z" fill="#FF8330"/>
  </g>
  <mask id="mask2_507_10755" style="mask-type:luminance" maskUnits="userSpaceOnUse" x="17" y="0" width="12" height="22">
    <path d="M28.2118 0.69043H17.3728V21.864H28.2118V0.69043Z" fill="white"/>
  </mask>
  <g mask="url(#mask2_507_10755)">
    <path d="M28.2179 8.00471H25.8992V21.8454H19.6915V8.00471H17.3728L22.7892 0.733398L28.2179 8.00471Z" fill="#4500A8"/>
  </g>
</svg>