<svg xmlns="http://www.w3.org/2000/svg" width="84" height="15" viewBox="0 0 84 15" fill="none">
  <path d="M11.6555 13.8605H8.52434V8.42634H3.53398V13.8605H0.422729V0.244141H3.53398V5.77991H8.52434V0.244141H11.6555V13.8605Z" fill="#4500A8"/>
  <path d="M17.5954 13.8605H14.4841V0.244141H17.5954V13.8605Z" fill="#4500A8"/>
  <path d="M32.1608 12.6073C30.8679 13.5502 29.2383 14.0216 27.272 14.0216C25.0904 14.0216 23.3184 13.3956 21.9582 12.1425C20.5979 10.8894 19.9178 9.1858 19.9178 7.03067C19.9178 4.87554 20.6278 3.19957 22.0498 1.91886C23.4707 0.639253 25.2725 0 27.4542 0C28.9899 0 30.3159 0.28264 31.4343 0.849024V3.96027C30.1415 3.21944 28.8144 2.84958 27.4542 2.84958C26.1746 2.84958 25.1577 3.23049 24.4037 3.99119C23.6496 4.75189 23.272 5.76541 23.272 7.03177C23.272 8.29813 23.6418 9.32822 24.3827 10.0823C25.1235 10.8364 26.1337 11.214 27.4133 11.214C27.9919 11.214 28.5649 11.1267 29.1301 10.9512V8.38535H26.9275V5.73891H32.1597V12.6084L32.1608 12.6073Z" fill="#4500A8"/>
  <path d="M45.9186 13.8605H42.7875V8.42634H37.7971V13.8605H34.6859V0.244141H37.7971V5.77991H42.7875V0.244141H45.9186V13.8605Z" fill="#4500A8"/>
  <path d="M57.0102 13.8605H48.5453V0.244141H56.9296V2.72939H51.6765V5.82076H56.3632V8.28613H51.6765V11.3775H57.0102V13.8627V13.8605Z" fill="#4500A8"/>
  <path d="M62.6465 13.8605H59.5352V0.244141H64.2429C65.7643 0.244141 66.9865 0.648225 67.9095 1.4564C68.8314 2.26457 69.2929 3.31564 69.2929 4.60849C69.2929 6.54833 68.4649 7.88867 66.8077 8.62839L70.2623 13.8605H66.5449L63.5949 9.13295H62.6454L62.6465 13.8605ZM64.1822 2.76913H62.6465V6.60796H64.1215C65.4685 6.60796 66.1419 5.94772 66.1419 4.62837C66.1419 4.04984 65.9664 3.59497 65.6164 3.26485C65.2664 2.93474 64.7883 2.76913 64.1822 2.76913Z" fill="#4500A8"/>
  <path d="M76.586 13.8605H71.939V0.244141H76.6257C78.6726 0.244141 80.3497 0.873454 81.6558 2.13319C82.9619 3.39292 83.6155 4.95848 83.6155 6.82987C83.6155 9.01149 82.9719 10.7294 81.6867 11.9814C80.4005 13.2334 78.7002 13.8605 76.586 13.8605ZM76.5252 2.80998H75.1308V11.3157H76.5451C77.7971 11.3157 78.7643 10.9248 79.4444 10.1443C80.1245 9.36369 80.4645 8.25852 80.4645 6.83097C80.4645 5.61871 80.1212 4.64603 79.4344 3.91183C78.7477 3.17763 77.7783 2.81108 76.5252 2.81108V2.80998Z" fill="#4500A8"/>
</svg>